<svg version="1.2" xmlns="http://www.w3.org/2000/svg" viewBox="0 0 1920 193" width="1920" height="193">
	<title>image</title>
	<style>
		.s0 { fill: #f2f1f1 } 
		.s1 { fill: #9e2432 } 
	</style>
	<path id="Layer" class="s0" d="m0 132.3v62.7h1919.7v-24c0 0-448.9-132-966.7-132-352 0-791.5 58-953 93.3z"/>
	<path id="Layer" class="s1" d="m0 125v1-0.8c0.1-0.1-0.2-0.2 0-0.2z"/>
	<path id="Layer" class="s1" d="m1927 71.4v4.1c-282.8-61.7-665.8-84.5-1095-64.2-231.2 11-536.8 39.2-832 108.5v-1.5c6.4-1.5 328.7-87 831.8-110.9 242-11.5 470.4-9.1 678.8 6.8 156.1 11.9 295.9 31.1 416.4 57.2z"/>
	<path id="Layer" class="s1" d="m1927 121.4v69.6c-269.1-86-671-146-1117.9-136.1-299.4 6.6-578.5 34-809.1 79.4v-14.1c245.9-53.6 551.8-88.2 882.4-94.3 406.2-7.4 775.6 29.6 1044.6 95.5z"/>
</svg>