<?xml version="1.0" encoding="UTF-8"?> <svg xmlns="http://www.w3.org/2000/svg" viewBox="0 0 49.44 49.59"> <defs> <style>.cls-1{fill:#a73439;}</style> </defs> <title>Asset 83</title> <g id="Layer_2" data-name="Layer 2"> <g id="Layer_2-2" data-name="Layer 2"> <path class="cls-1" d="M45,26.19H4.65a.74.74,0,0,1-.75-.75c0-12.18,9.38-22.1,20.91-22.1s20.91,9.92,20.91,22.1A.75.75,0,0,1,45,26.19ZM5.41,24.69H44.2c-.37-11-8.93-19.85-19.39-19.85S5.78,13.68,5.41,24.69Z"></path> <path class="cls-1" d="M48.69,26.19H45a.75.75,0,0,1,0-1.5h3.72a.75.75,0,0,1,0,1.5Z"></path> <path class="cls-1" d="M4.65,26.19H.75a.75.75,0,0,1,0-1.5h3.9a.75.75,0,1,1,0,1.5Z"></path> <path class="cls-1" d="M8.5,26.19a.74.74,0,0,1-.75-.75A18.07,18.07,0,0,1,18.92,8.52a.75.75,0,0,1,.55,1.4A16.55,16.55,0,0,0,9.25,25.44.75.75,0,0,1,8.5,26.19Z"></path> <path class="cls-1" d="M28.28,5a.75.75,0,1,1,0-1.5h0a3.73,3.73,0,0,0,0-.59c0-.14,0-.28,0-.42a1,1,0,0,0-1-1H22.13a1,1,0,0,0-1,1c0,.14,0,.28,0,.42a5.77,5.77,0,0,0,0,.59h.05a.75.75,0,0,1,0,1.5A1.51,1.51,0,0,1,20,4.61a2.19,2.19,0,0,1-.41-1.71c0-.12,0-.25,0-.38A2.51,2.51,0,0,1,22.13,0h5.18a2.52,2.52,0,0,1,2.51,2.52c0,.13,0,.26,0,.38a2.23,2.23,0,0,1-.41,1.71A1.52,1.52,0,0,1,28.28,5Z"></path> <path class="cls-1" d="M27.72,31.78h0c-3.29,0-8.11-2.63-10.74-5.86a.76.76,0,0,1,.11-1.06.75.75,0,0,1,1.05.11c2.59,3.18,7,5.31,9.58,5.31S31,25.41,31,25.36a.75.75,0,0,1,.83-.66.74.74,0,0,1,.66.82C32.44,25.78,31.75,31.78,27.72,31.78Z"></path> <path class="cls-1" d="M35.66,43.47a.73.73,0,0,1-.52-.21A20.47,20.47,0,0,0,30.39,41c-3.43-1.35-7.7-3-10.71-5.56a20.72,20.72,0,0,1-6.56-9.83.75.75,0,0,1,1.45-.37,19.59,19.59,0,0,0,6.07,9.05c2.83,2.36,7,4,10.3,5.31,2.44,1,4.36,1.73,5.23,2.55a.76.76,0,0,1,0,1.07A.78.78,0,0,1,35.66,43.47Z"></path> <path class="cls-1" d="M42.28,49.59a.77.77,0,0,1-.36-.09l-7.25-4a.75.75,0,0,1-.32-1l5-11.28a.7.7,0,0,1,.45-.41.72.72,0,0,1,.61.07l4.44,2.6a.76.76,0,0,1,.36.78L43,49a.74.74,0,0,1-.42.55A.71.71,0,0,1,42.28,49.59ZM36,44.52l5.72,3.16,2-11.13-3.26-1.92Z"></path> <path class="cls-1" d="M39.47,35.64a.75.75,0,0,1-.42-.14,11.4,11.4,0,0,1-4.25-4.61c-.55-1.48.19-4.94.34-5.61a.75.75,0,0,1,1.47.33c-.35,1.5-.7,4-.41,4.75a10.34,10.34,0,0,0,3.7,3.91.74.74,0,0,1,.19,1A.76.76,0,0,1,39.47,35.64Z"></path> </g> </g> </svg> 