<?xml version="1.0" encoding="utf-8"?>
<!-- Generator: Adobe Illustrator 28.2.0, SVG Export Plug-In . SVG Version: 6.00 Build 0)  -->
<svg version="1.1" id="Layer_1" xmlns="http://www.w3.org/2000/svg" xmlns:xlink="http://www.w3.org/1999/xlink" x="0px" y="0px"
	 viewBox="0 0 1306.7 124.7" style="enable-background:new 0 0 1306.7 124.7;" xml:space="preserve">
<style type="text/css">
	.st0{fill:#F2F1F1;}
	.st1{fill:#9E2432;}
</style>
<path class="st0" d="M0.3,107.3c0,0,310-43.6,646-43.6s660,35.7,660,35.7V125H0.3C0.3,125,3.6,103.8,0.3,107.3z"/>
<g>
	<path class="st1" d="M1306.2,25.6v6c-144.9-8.3-296.5-17.1-453.3-14.6c-236,3.8-533.4,28-837.2,84.7c-2.5,0.5-4.9,0.9-7.4,1.4
		c-2.6,0.4-5.1,1-8,1.5v-7c260.2-49.4,546.1-81.8,852.5-86.8C1009.1,8.3,1160.5,17.1,1306.2,25.6z"/>
	<path class="st1" d="M1306.2,67v54c-153.7-20.1-302-35.5-484-39.4C527,75.3,247.8,88.1,0.3,123v-18.6c2.6-0.5,5.2-1,7.8-1.5
		c2.5-0.4,5-0.8,7.6-1.2c267.3-43.1,574.1-64.3,899.8-57.1C1049.7,47.6,1180.4,55.2,1306.2,67z"/>
</g>
</svg>
